screens;
 
http://baypic.net/img-519dd103db6f6.html 
 
http://baypic.net/img-519dd10633062.html 
 
http://baypic.net/img-519dd1088f539.html 

Format : MPEG-4
Format profile : Base Media / Version 2
Codec ID : mp42
File size : 3.30 GiB
Duration : 46mn 18s
Overall bit rate mode : Variable
Overall bit rate : 10.2 Mbps
Encoded date : UTC 2013-05-21 23:43:09
Tagged date : UTC 2013-05-21 23:43:09
Writing library : Apple QuickTime

Video
ID : 1
Format : AVC
Format/Info : Advanced Video Codec
Format profile : High@L4.0
Format settings, CABAC : No
Format settings, ReFrames : 3 frames
Codec ID : avc1
Codec ID/Info : Advanced Video Coding
Duration : 46mn 18s
Source duration : 46mn 18s
Bit rate mode : Variable
Bit rate : 9 587 Kbps
Maximum bit rate : 10.0 Mbps
Width : 1 920 pixels
Height : 1 080 pixels
Display aspect ratio : 16:9
Frame rate mode : Constant
Frame rate : 29.970 fps
Standard : Component
Color space : YUV
Chroma subsampling : 4:2:0
Bit depth : 8 bits
Scan type : Progressive
Bits/(Pixel*Frame) : 0.154
Stream size : 3.10 GiB (94%)
Source stream size : 3.23 GiB (98%)
Encoded date : UTC 2013-05-21 23:43:09
Tagged date : UTC 2013-05-20 23:45:02

Audio
ID : 2
Format : AAC
Format/Info : Advanced Audio Codec
Format profile : LC
Codec ID : 40
Duration : 46mn 18s
Bit rate mode : Variable
Bit rate : 192 Kbps
Maximum bit rate : 200 Kbps
Channel(s) : 2 channels
Channel positions : Front: L R
Sampling rate : 48.0 KHz
Compression mode : Lossy
Stream size : 63.6 MiB (2%)
